<svg width="292" height="292" viewBox="0 0 292 292" fill="none" xmlns="http://www.w3.org/2000/svg">
<path d="M109.542 65.7917V109.542H65.7916V65.7917H109.542ZM131.417 43.9167H43.9166V131.417H131.417V43.9167ZM109.542 182.458V226.208H65.7916V182.458H109.542ZM131.417 160.583H43.9166V248.083H131.417V160.583ZM226.208 65.7917V109.542H182.458V65.7917H226.208ZM248.083 43.9167H160.583V131.417H248.083V43.9167ZM160.583 160.583H182.458V182.458H160.583V160.583ZM182.458 182.458H204.333V204.333H182.458V182.458ZM204.333 160.583H226.208V182.458H204.333V160.583ZM160.583 204.333H182.458V226.208H160.583V204.333ZM182.458 226.208H204.333V248.083H182.458V226.208ZM204.333 204.333H226.208V226.208H204.333V204.333ZM226.208 182.458H248.083V204.333H226.208V182.458ZM226.208 226.208H248.083V248.083H226.208V226.208ZM291.833 73.0833H262.667V29.3333H218.917V0.166656H291.833V73.0833ZM291.833 291.833V218.917H262.667V262.667H218.917V291.833H291.833ZM0.166626 291.833H73.0833V262.667H29.3333V218.917H0.166626V291.833ZM0.166626 0.166656V73.0833H29.3333V29.3333H73.0833V0.166656H0.166626Z" fill="black"/>
</svg>
