<svg width="24" height="25" viewBox="0 0 24 25" fill="none" xmlns="http://www.w3.org/2000/svg">
<path fill-rule="evenodd" clip-rule="evenodd" d="M15.7501 21.75C15.7503 22.3807 15.512 22.9882 15.0832 23.4507C14.6543 23.9132 14.0665 24.1964 13.4376 24.2438L13.2501 24.25H10.7501C10.1193 24.2502 9.51185 24.012 9.04937 23.5831C8.58689 23.1543 8.30361 22.5664 8.2563 21.9375L8.25005 21.75H15.7501ZM12.0001 0.5C14.2688 0.499963 16.4488 1.38112 18.0803 2.95759C19.7119 4.53407 20.6673 6.68261 20.7451 8.95L20.7501 9.25V13.955L23.0276 18.51C23.127 18.7088 23.1767 18.9286 23.1725 19.1508C23.1684 19.373 23.1104 19.5908 23.0036 19.7857C22.8968 19.9806 22.7444 20.1467 22.5594 20.2698C22.3744 20.3929 22.1623 20.4693 21.9413 20.4925L21.7976 20.5H2.20256C1.98026 20.5001 1.76126 20.4462 1.56433 20.3431C1.3674 20.24 1.1984 20.0907 1.07183 19.9079C0.945249 19.7252 0.864864 19.5145 0.83756 19.2939C0.810256 19.0733 0.836847 18.8493 0.915055 18.6413L0.972555 18.51L3.25005 13.955V9.25C3.25005 6.92936 4.17193 4.70376 5.81287 3.06282C7.45381 1.42187 9.67941 0.5 12.0001 0.5ZM12.0001 3C10.3895 3.00009 8.8411 3.62193 7.67783 4.73583C6.51456 5.84972 5.8262 7.36969 5.75631 8.97875L5.75005 9.25V13.955C5.75007 14.265 5.69242 14.5723 5.58005 14.8612L5.4863 15.0738L4.0238 18H19.9776L18.5151 15.0725C18.3763 14.7953 18.2903 14.4948 18.2613 14.1863L18.2501 13.955V9.25C18.2501 7.5924 17.5916 6.00269 16.4195 4.83058C15.2474 3.65848 13.6577 3 12.0001 3Z" fill="white"/>
</svg>
