<svg width="22" height="22" viewBox="0 0 22 22" fill="none" xmlns="http://www.w3.org/2000/svg">
<path d="M11 13.2167L3.24168 20.975C2.9514 21.2653 2.58196 21.4104 2.13335 21.4104C1.68474 21.4104 1.31529 21.2653 1.02502 20.975C0.734738 20.6847 0.5896 20.3153 0.5896 19.8667C0.5896 19.4181 0.734738 19.0486 1.02502 18.7583L8.78335 11L1.02502 3.24167C0.734738 2.95139 0.5896 2.58195 0.5896 2.13333C0.5896 1.68472 0.734738 1.31528 1.02502 1.025C1.31529 0.734723 1.68474 0.589584 2.13335 0.589584C2.58196 0.589584 2.9514 0.734723 3.24168 1.025L11 8.78333L18.7583 1.025C19.0486 0.734723 19.4181 0.589584 19.8667 0.589584C20.3153 0.589584 20.6847 0.734723 20.975 1.025C21.2653 1.31528 21.4104 1.68472 21.4104 2.13333C21.4104 2.58195 21.2653 2.95139 20.975 3.24167L13.2167 11L20.975 18.7583C21.2653 19.0486 21.4104 19.4181 21.4104 19.8667C21.4104 20.3153 21.2653 20.6847 20.975 20.975C20.6847 21.2653 20.3153 21.4104 19.8667 21.4104C19.4181 21.4104 19.0486 21.2653 18.7583 20.975L11 13.2167Z" fill="black"/>
</svg>
