<svg width="29" height="26" viewBox="0 0 29 26" fill="none" xmlns="http://www.w3.org/2000/svg">
<path d="M16.3647 0.00494437C9.15384 -0.193389 3.24634 5.60078 3.24634 12.7549H0.710507C0.0730071 12.7549 -0.23866 13.5199 0.214674 13.9591L4.16717 17.9258C4.45051 18.2091 4.88967 18.2091 5.17301 17.9258L9.12551 13.9591C9.2234 13.8592 9.28955 13.7326 9.3156 13.5952C9.34166 13.4578 9.32645 13.3158 9.27191 13.187C9.21737 13.0582 9.12594 12.9485 9.00912 12.8716C8.89231 12.7947 8.75535 12.7541 8.61551 12.7549H6.07967C6.07967 7.22994 10.5847 2.76744 16.138 2.83828C21.408 2.90911 25.8422 7.34328 25.913 12.6133C25.9838 18.1524 21.5213 22.6716 15.9963 22.6716C13.7155 22.6716 11.6047 21.8924 9.93301 20.5749C9.66166 20.3612 9.32122 20.2546 8.97643 20.2755C8.63164 20.2964 8.30655 20.4433 8.06301 20.6883C7.46801 21.2833 7.51051 22.2891 8.17634 22.7991C10.4021 24.5593 13.1587 25.5131 15.9963 25.5049C23.1505 25.5049 28.9447 19.5974 28.7463 12.3866C28.5622 5.74244 23.0088 0.189111 16.3647 0.00494437ZM15.6422 7.08828C15.0613 7.08828 14.5797 7.56994 14.5797 8.15078V13.3641C14.5797 13.8599 14.8488 14.3274 15.2738 14.5824L19.6938 17.2033C20.2038 17.5008 20.8555 17.3308 21.153 16.8349C21.4505 16.3249 21.2805 15.6733 20.7847 15.3758L16.7047 12.9533V8.13661C16.7047 7.56994 16.223 7.08828 15.6422 7.08828Z" fill="#D9BB97"/>
</svg>
