<svg width="24" height="26" viewBox="0 0 24 26" fill="none" xmlns="http://www.w3.org/2000/svg">
<path d="M1.66675 22.9179V22.9167V10.1667C1.66675 9.87376 1.73098 9.60217 1.86251 9.33973C1.99459 9.07619 2.16979 8.8694 2.39247 8.70566L2.3925 8.7057L2.40008 8.70001L10.8937 2.3298C11.0749 2.19881 11.2537 2.10776 11.4309 2.04869C11.6094 1.98918 11.7976 1.95834 12.0001 1.95834C12.2026 1.95834 12.3907 1.98918 12.5693 2.04869C12.7465 2.10777 12.9253 2.19882 13.1065 2.32981L21.6001 8.70001L21.6 8.70006L21.6087 8.70641C21.8321 8.87022 22.0073 9.07682 22.1391 9.33973C22.2703 9.60153 22.334 9.87237 22.3334 10.1646V10.1667V22.9167C22.3334 23.4283 22.1628 23.8418 21.7933 24.2113C21.4239 24.5808 21.0112 24.7506 20.5013 24.75H20.5001H15.8334V15.8333V14.8333H14.8334H9.16675H8.16675V15.8333V24.75H3.50008C2.98849 24.75 2.57491 24.5794 2.20544 24.2099C1.836 23.8405 1.66613 23.4277 1.66675 22.9179Z" stroke="#D9BB97" stroke-width="2"/>
</svg>
