<svg width="21" height="18" viewBox="0 0 21 18" fill="none" xmlns="http://www.w3.org/2000/svg">
<path d="M4 18V14H0V8C0 7.15 0.291667 6.43733 0.875 5.862C1.45833 5.28667 2.16667 4.99933 3 5H17C17.85 5 18.5627 5.28767 19.138 5.863C19.7133 6.43833 20.0007 7.15067 20 8V8.75C19.55 8.51667 19.079 8.33333 18.587 8.2C18.095 8.06667 17.591 8 17.075 8C15.775 8 14.5957 8.36667 13.537 9.1C12.4783 9.83333 11.716 10.8 11.25 12H6V16H11.1C11.2167 16.3667 11.3583 16.7167 11.525 17.05C11.6917 17.3833 11.8917 17.7 12.125 18H4ZM4 4V0H16V4H4ZM15.95 17.175L13.1 14.35L14.525 12.95L15.95 14.35L19.475 10.825L20.9 12.225L15.95 17.175Z" fill="white"/>
</svg>
