<svg width="29" height="29" viewBox="0 0 29 29" fill="none" xmlns="http://www.w3.org/2000/svg">
<path d="M14.1667 0C12.3063 0 10.4641 0.366432 8.74532 1.07837C7.02654 1.79031 5.46482 2.83382 4.14932 4.14932C1.49256 6.80609 0 10.4094 0 14.1667C0 17.9239 1.49256 21.5272 4.14932 24.184C5.46482 25.4995 7.02654 26.543 8.74532 27.255C10.4641 27.9669 12.3063 28.3333 14.1667 28.3333C17.9239 28.3333 21.5272 26.8408 24.184 24.184C26.8408 21.5272 28.3333 17.9239 28.3333 14.1667C28.3333 12.3063 27.9669 10.4641 27.255 8.74532C26.543 7.02654 25.4995 5.46482 24.184 4.14932C22.8685 2.83382 21.3068 1.79031 19.588 1.07837C17.8692 0.366432 16.0271 0 14.1667 0ZM7.1825 23.0633C7.79167 21.7883 11.5033 20.5417 14.1667 20.5417C16.83 20.5417 20.5417 21.7883 21.1508 23.0633C19.1666 24.6444 16.7037 25.5036 14.1667 25.5C11.5317 25.5 9.10917 24.5933 7.1825 23.0633ZM23.1767 21.0092C21.1508 18.5442 16.235 17.7083 14.1667 17.7083C12.0983 17.7083 7.1825 18.5442 5.15667 21.0092C3.6496 19.0466 2.83286 16.6412 2.83333 14.1667C2.83333 7.91917 7.91917 2.83333 14.1667 2.83333C20.4142 2.83333 25.5 7.91917 25.5 14.1667C25.5 16.745 24.6217 19.125 23.1767 21.0092ZM14.1667 5.66667C11.4183 5.66667 9.20833 7.87667 9.20833 10.625C9.20833 13.3733 11.4183 15.5833 14.1667 15.5833C16.915 15.5833 19.125 13.3733 19.125 10.625C19.125 7.87667 16.915 5.66667 14.1667 5.66667ZM14.1667 12.75C13.6031 12.75 13.0626 12.5261 12.6641 12.1276C12.2655 11.7291 12.0417 11.1886 12.0417 10.625C12.0417 10.0614 12.2655 9.52091 12.6641 9.1224C13.0626 8.72388 13.6031 8.5 14.1667 8.5C14.7303 8.5 15.2708 8.72388 15.6693 9.1224C16.0678 9.52091 16.2917 10.0614 16.2917 10.625C16.2917 11.1886 16.0678 11.7291 15.6693 12.1276C15.2708 12.5261 14.7303 12.75 14.1667 12.75Z" fill="#D9BB97"/>
</svg>
